<svg width="100" height="100" viewBox="0 0 100 100" fill="none" xmlns="http://www.w3.org/2000/svg">
<path d="M71.0309 42.7114C61.3713 42.7114 53.5342 47.1702 53.5342 52.677V57.1488C53.5342 62.6491 61.3647 65.9232 71.0309 65.9232C80.6971 65.9232 88.5276 62.6556 88.5276 57.1488V52.677C88.5276 47.1767 80.6971 42.7114 71.0309 42.7114Z" fill="white" stroke="black" stroke-width="1.84476" stroke-linecap="round" stroke-linejoin="round"/>
<path d="M71.0309 35.1405C61.3713 35.1405 53.5342 39.5993 53.5342 45.1061V49.5779C53.5342 55.0782 61.3647 58.3523 71.0309 58.3523C80.6971 58.3523 88.5276 55.0847 88.5276 49.5779V45.1061C88.5276 39.6058 80.6971 35.1405 71.0309 35.1405Z" fill="white" stroke="black" stroke-width="1.84476" stroke-linecap="round" stroke-linejoin="round"/>
<path d="M88.5208 37.536C88.5208 32.0357 80.6902 27.5704 71.0241 27.5704C61.3579 27.5704 53.5273 32.0292 53.5273 37.536V42.0078C53.5273 47.5081 61.3579 50.7822 71.0241 50.7822C80.6902 50.7822 88.5208 47.5146 88.5208 42.0078V37.536Z" fill="white" stroke="black" stroke-width="1.84476" stroke-linecap="round" stroke-linejoin="round"/>
<path d="M71.0309 39.9312C80.6941 39.9312 88.5276 35.4694 88.5276 29.9656C88.5276 24.4617 80.6941 20 71.0309 20C61.3677 20 53.5342 24.4617 53.5342 29.9656C53.5342 35.4694 61.3677 39.9312 71.0309 39.9312Z" fill="#FFF5A8" stroke="black" stroke-width="1.84476" stroke-linecap="round" stroke-linejoin="round"/>
<path d="M53.5342 35.9213C53.5342 41.4216 61.3647 44.3963 71.0309 44.3963C80.6971 44.3963 88.5276 41.4216 88.5276 35.9213V29.9589C88.5276 35.4591 78.8354 37.7048 71.0309 37.7048C64.2548 37.7048 53.5342 35.4591 53.5342 29.9589V35.9213Z" fill="white" stroke="black" stroke-width="1.84476" stroke-linecap="round" stroke-linejoin="round"/>
<path d="M36.031 80.1302C49.8552 80.1302 61.062 68.9235 61.062 55.0992C61.062 41.275 49.8552 30.0682 36.031 30.0682C22.2068 30.0682 11 41.275 11 55.0992C11 68.9235 22.2068 80.1302 36.031 80.1302Z" fill="#FFE100" stroke="black" stroke-width="2" stroke-linecap="round" stroke-linejoin="round"/>
<path d="M44.3471 62.0682H41.5888V52.0809H41.5068L37.4872 61.9247H35.539L31.5195 52.0809H31.4374V62.0682H28.6791V47.2719H32.268L36.4721 57.7616H36.5541L40.7582 47.2719H44.3471V62.0682Z" fill="black"/>
<path d="M36.0308 34.874C47.2303 34.8742 56.3403 43.985 56.3403 55.1846C56.3401 66.3839 47.2301 75.4939 36.0308 75.4941C24.8312 75.4941 15.7204 66.3841 15.7202 55.1846C15.7202 43.9849 24.8311 34.874 36.0308 34.874Z" stroke="black" stroke-width="1.2" stroke-linecap="round" stroke-linejoin="round"/>
</svg>
