<svg width="100" height="100" viewBox="0 0 100 100" fill="none" xmlns="http://www.w3.org/2000/svg">
<path d="M18.7706 32.5425L7.33887 50.0049V66.8216H34.237V50.0049V32.5425H18.7706Z" fill="white" stroke="black" stroke-width="1.92002" stroke-linecap="round" stroke-linejoin="round"/>
<path d="M30.5061 36.2783V47.4805H13.46L20.7929 36.2783H30.5061Z" fill="#FFF5A8" stroke="black" stroke-width="1.92002" stroke-linecap="round" stroke-linejoin="round"/>
<path d="M30.5062 50.9125H26.2046" stroke="black" stroke-width="1.92002" stroke-linecap="round" stroke-linejoin="round"/>
<path d="M82.7282 62.4027H5.85498V66.8217H82.7282V62.4027Z" fill="white" stroke="black" stroke-width="1.92002" stroke-linecap="round" stroke-linejoin="round"/>
<path d="M20.6616 73.9995C24.626 73.9995 27.8398 70.7858 27.8398 66.8214C27.8398 62.857 24.626 59.6432 20.6616 59.6432C16.6972 59.6432 13.4834 62.857 13.4834 66.8214C13.4834 70.7858 16.6972 73.9995 20.6616 73.9995Z" fill="black" stroke="black" stroke-width="1.60108" stroke-linecap="round" stroke-linejoin="round"/>
<path d="M20.6618 70.302C22.5836 70.302 24.1415 68.7441 24.1415 66.8223C24.1415 64.9006 22.5836 63.3427 20.6618 63.3427C18.74 63.3427 17.1821 64.9006 17.1821 66.8223C17.1821 68.7441 18.74 70.302 20.6618 70.302Z" fill="white" stroke="black" stroke-width="1.60108" stroke-linecap="round" stroke-linejoin="round"/>
<path d="M82.7287 25.9995H34.2373V62.4027H82.7287V25.9995Z" fill="#FFE100" stroke="black" stroke-width="1.92002" stroke-linecap="round" stroke-linejoin="round"/>
<path d="M69.622 73.9995C73.5864 73.9995 76.8002 70.7858 76.8002 66.8214C76.8002 62.857 73.5864 59.6432 69.622 59.6432C65.6576 59.6432 62.4438 62.857 62.4438 66.8214C62.4438 70.7858 65.6576 73.9995 69.622 73.9995Z" fill="black" stroke="black" stroke-width="1.60108" stroke-linecap="round" stroke-linejoin="round"/>
<path d="M69.6223 70.302C71.544 70.302 73.1019 68.7441 73.1019 66.8223C73.1019 64.9006 71.544 63.3427 69.6223 63.3427C67.7005 63.3427 66.1426 64.9006 66.1426 66.8223C66.1426 68.7441 67.7005 70.302 69.6223 70.302Z" fill="white" stroke="black" stroke-width="1.60108" stroke-linecap="round" stroke-linejoin="round"/>
<path d="M87.0728 66.8219H92.6018" stroke="black" stroke-width="1.92002" stroke-linecap="round" stroke-linejoin="round"/>
<path d="M87.0728 62.4027H94.9181" stroke="black" stroke-width="1.92002" stroke-linecap="round" stroke-linejoin="round"/>
<path d="M87.0728 57.9891H92.6018" stroke="black" stroke-width="1.92002" stroke-linecap="round" stroke-linejoin="round"/>
<path d="M44.231 49.668V38.8454H51.3186V40.7129H46.496V43.6154H50.8986V45.4079H46.496V49.668H44.231ZM52.4736 49.668V41.6279H54.6636V43.0304H54.7086C54.9486 42.0404 55.6011 41.4629 56.5386 41.4629C56.7786 41.4629 57.0036 41.5004 57.1686 41.5454V43.4729C56.9886 43.3979 56.6886 43.3529 56.3736 43.3529C55.2936 43.3529 54.6636 43.9979 54.6636 45.1679V49.668H52.4736ZM61.4587 49.833C58.9987 49.833 57.5061 48.2355 57.5061 45.6629V45.6554C57.5061 43.0979 59.0137 41.4629 61.3687 41.4629C63.7237 41.4629 65.2012 43.0604 65.2012 45.4904V46.1654H59.6662C59.6887 47.4479 60.3862 48.198 61.5037 48.198C62.4037 48.198 62.9512 47.703 63.1087 47.2529L63.1237 47.2079H65.1337L65.1112 47.2904C64.8637 48.4755 63.7537 49.833 61.4587 49.833ZM61.4062 43.0979C60.5062 43.0979 59.8312 43.6979 59.6887 44.7854H63.1012C62.9662 43.6754 62.3137 43.0979 61.4062 43.0979ZM69.9937 49.833C67.5337 49.833 66.0412 48.2355 66.0412 45.6629V45.6554C66.0412 43.0979 67.5487 41.4629 69.9037 41.4629C72.2588 41.4629 73.7363 43.0604 73.7363 45.4904V46.1654H68.2012C68.2237 47.4479 68.9212 48.198 70.0387 48.198C70.9388 48.198 71.4863 47.703 71.6438 47.2529L71.6588 47.2079H73.6688L73.6463 47.2904C73.3988 48.4755 72.2888 49.833 69.9937 49.833ZM69.9412 43.0979C69.0412 43.0979 68.3662 43.6979 68.2237 44.7854H71.6363C71.5013 43.6754 70.8488 43.0979 69.9412 43.0979Z" fill="black"/>
</svg>
